<svg xmlns="http://www.w3.org/2000/svg" width="26.312" height="21.442" viewBox="0 0 26.312 21.442">
  <g id="noun_go_back_1683133" data-name="noun_go back_1683133" transform="translate(-282.292 -37.163)">
    <path id="Trazado_1" data-name="Trazado 1" d="M12.691,32.352l.047.044a.753.753,0,0,0,1.271-.6q-.135-3.061-.276-6.133,6.925.425,13.849.513a.99.99,0,0,0,1-.979v-.019q.041-3.309,0-6.619v-.028a.993.993,0,0,0-1-.982q-6.933.083-13.86.51Q13.863,15,14,11.94a.745.745,0,0,0-1.249-.579L12.7,11.4q-5.143,4.779-10.11,9.74h0a1.023,1.023,0,0,0,0,1.448Q7.556,27.557,12.691,32.352ZM12.76,18.2h0a.441.441,0,0,0,.483.367h0c0,.259.141.474.323.488h.05q6.478.4,12.961.491-.022,2.33,0,4.661-6.511.1-13.016.5c-.179,0-.323.218-.323.474h0a.458.458,0,0,0-.488.378v.058c-.066,1.451-.13,2.9-.2,4.343q-3.839-4.1-7.8-8.086,3.968-4,7.818-8.113.1,2.209.2,4.423Z" transform="translate(280 26)" fill="#fff"/>
  </g>
</svg>
