<svg id="noun_search_world_2410987" data-name="noun_search world_2410987" xmlns="http://www.w3.org/2000/svg" width="36" height="36" viewBox="0 0 36 36">
  <path id="Trazado_62" data-name="Trazado 62" d="M15.54,13.731l.15-.131Z" transform="translate(-1.398 -1.25)" fill="#fff"/>
  <path id="Trazado_63" data-name="Trazado 63" d="M35.437,19.595c0-.384-.487-.525-.806-.693,0-.347.112-.075.094-.412a.572.572,0,0,0-.281,0c-.253.112-.112.141-.112.187s.244-.047,0,.187a.44.44,0,0,1-.272.075c-.169-.244-.159-.356-.487-.365a1.565,1.565,0,0,0-.356.562c-.112.328,0,.1,0,.459h0v.159c.262-.056.066,0,.253-.112a3.214,3.214,0,0,1,.937-.187C34.688,19.595,35.006,19.9,35.437,19.595Z" transform="translate(-16.302 -9.556)" fill="#fff"/>
  <path id="Trazado_64" data-name="Trazado 64" d="M36.967,20.353a.881.881,0,0,0,.825.216c0-.431-.094-.412-.225-.712l.094-.084c.1-.131.056.056.1-.169-.262-.084-.675-.347-.712-.693.131-.1.094-.047.187-.1s.047.066.169-.159c-.1-.2-.225-.234-.478-.131a3.542,3.542,0,0,0-.459.3,1.452,1.452,0,0,0,.581.984A2.465,2.465,0,0,0,36.967,20.353Z" transform="translate(-16.716 -7.178)" fill="#fff"/>
  <path id="Trazado_65" data-name="Trazado 65" d="M27.419,16.864a.9.9,0,0,1-.08-.18,2.077,2.077,0,0,1-.394.095h0c-.085.12,0,.07-.145.195a4.769,4.769,0,0,1-.5.469,3.834,3.834,0,0,1-.035.5c0,.09-.125.335-.245.32a2.347,2.347,0,0,1-.235-.5,3.789,3.789,0,0,1-.165-.539c-.03-.115-.045-.335-.075-.414-.125,0-.12.1-.24,0s-.045-.1-.09-.19l-.3-.285a3.324,3.324,0,0,0-.5,0c-.23,0-.25,0-.389-.19-.245,0-.225.1-.459-.1-.155-.135-.125-.345-.35-.225,0,.195.085.235.165.325s.14.115.175.2a.884.884,0,0,0,0,.1c.22,0,.27-.09.389-.18.12.11,0,.13.175.22s.11.025.195.135-.3.549-.414.624-.135,0-.215.085,0,.085-.19.16a2.706,2.706,0,0,1-.669.265l-.15-.414c-.145-.469-.14-.285-.29-.529-.07-.1-.04-.175-.085-.27s-.085-.1-.13-.185-.145-.345-.3-.325c-.035.1.145.464.19.549s.11.125.13.25,0,.15.09.265c.195.235,0,.195.295.424s.17.23.27.459c.15.045.594-.155.669-.1.09.165-.1.419-.155.564-.165.469-.449.464-.669.824a3.24,3.24,0,0,0-.29.454c-.125.265.255,1,0,1.308-.05.07-.21.11-.409.325s0,.19-.08.579c-.06.09-.14.095-.22.155a1.718,1.718,0,0,1-.055.28c-.055.135-.065.065-.14.175a1.587,1.587,0,0,1-.115.2.729.729,0,0,1-.135.14,1.183,1.183,0,0,1-.849.21c-.13-.11-.045-.14-.075-.295a1.288,1.288,0,0,0-.165-.354h0a.674.674,0,0,1-.07-.15,4.129,4.129,0,0,0-.255-.924c-.23-.434.13-.664.115-.909a1.025,1.025,0,0,0-.035-.155,1.358,1.358,0,0,0-.25-.729c-.2-.235-.175-.15-.11-.534s-.1-.325-.369-.34c-.13-.394-.379-.2-.634-.085-.155.075-.215,0-.394,0-.4.055-.085.225-.614-.195-.225-.18-.075-.09-.21-.31a2.3,2.3,0,0,0-.24-.265c-.2-.255.04-.5,0-.8-.06-.539-.15-.07.15-.724.16-.345.4-.35.464-.5s0-.235.115-.364.215-.08.265-.245-.065-.225-.21-.23c-.065-.2-.065-.155,0-.349.025-.1,0-.16.025-.265.06-.27.5,0,.649-.115a.31.31,0,0,0,0-.335c-.075-.11-.17-.1-.22-.2.11-.075.03,0,.125-.03a1.126,1.126,0,0,1,.235-.085c.135-.025.2-.135.315-.2s.09-.2.29-.24c.325-.055.115-.045.15-.35l.145-.06c.1.135-.03.08.095.17l.1-.06c0-.145-.085-.115-.13-.295-.16,0-.22.16-.345.11s-.135-.225-.13-.374.285-.175.374-.2.125-.145.26-.28.045,0,.135-.225c.19,0,.1,0,.215-.075h0c.07-.03.155-.04.245-.07a.809.809,0,0,1,.689.045c.18.075.729.075.769.3-.13.14-.255.04-.449.05.035.18.05.18.215.23.025-.085,0-.055.03-.1l.16.03c.05-.185.115-.155.295-.18-.03-.125-.065-.085,0-.185.185,0,.035,0,.125.15.13,0,.255-.16.434-.18s.1.03.26,0,.125-.06.255,0c.045-.09,0-.085.115-.11s.325.08.5.1c-.125-.155-.245-.125-.09-.384.2-.04.215,0,.3.135.05-.025.07-.055.095-.065l-.04-.035-.225-.17-.045-.03c-.06-.05-.125-.095-.19-.14l-.06-.04-.235-.155h0l-.22-.135-.065-.04-.215-.12h-.035l-.245-.13-.075-.035-.2-.095-.06-.03-.255-.11L21.887,10l-.2-.08-.08-.03-.26-.09h-.05l-.23-.12h-.085l-.24-.065H20.7l-.27-.065h-.09l-.21-.09h-.075l-.275-.045H19.7l-.22-.03h-.085l-.285-.025h-.689a9.117,9.117,0,0,0-5.9,2.157h0a.1.1,0,0,1,.03.065c-.145.035-.145.06-.2.07l-.1.09a1.213,1.213,0,0,0,.354,0c.035-.07.06-.135.125-.16a.325.325,0,0,1,.1,0,.8.8,0,0,0,.025.1v-.01h0c.185-.11.03-.11.13-.3-.155-.03-.135,0-.235-.11a.539.539,0,0,1,.414-.13c0,.095-.055.09,0,.17.1-.065.18-.24.35-.21.03.025.07.045.1.07a1.039,1.039,0,0,1-.335.13c-.05.5.16.085.09.434a.389.389,0,0,0,.3-.195c-.05-.06-.115-.06-.155-.135a.335.335,0,0,1,.17-.22.5.5,0,0,1,.215-.045c.934,0,.5.05.779.18.065.03.175.04.215.1s0,.17.095.24.095,0,.2.135a.2.2,0,0,1-.195.16c-.155,0-.065-.1-.235-.09,0,.16.165.225,0,.31s-.045-.03-.14.025h0l-.05.055c-.235-.065-.19-.035-.33-.19-.055-.06-.06-.075-.155-.07s-.135.03-.19,0c.115-.145.17,0,.335-.09a2.7,2.7,0,0,0,.245-.19c-.05-.115,0,0-.08-.095-.165-.165-.21-.12-.434-.12-.1.12-.18.265-.295.33a.275.275,0,0,1-.26,0c.05.2.18.045.19.29-.08,0-.125-.06-.215-.03-.19.07,0,.065,0,.1s.085,0,0,.04,0,0-.2-.125c.03-.05.055-.1.08-.15a4.923,4.923,0,0,0-.5.21,2.307,2.307,0,0,0-.5.325c0,.175.03.055.05.265.27,0,.185.1.454.175l.2.045c0,.13-.12.23-.035.364.19.135.195-.125.24-.29.649-.135.335-.325.5-.679a.894.894,0,0,1,.11-.175l.295.035c.15.025.07.06.225.13,0,.13-.065.29.12.26s.115-.135.29-.165a1.608,1.608,0,0,1,.095.5c.419.165.235.295.15.6l.165.075v.26l-.5-.1c.07-.195.19-.195.27-.389-.16.025-.145.075-.26.11a1.837,1.837,0,0,1-.29.025.2.2,0,0,1,0,.05c0,.06.035,0,0,.07-.145-.07-.095-.23-.369-.08l.16.1c0,.18,0,.045-.06.165-.095.3.255.115.345.1,0,.16-.125.16-.265.2s-.2.11-.325.14c0-.195-.03-.03.055-.165a1.178,1.178,0,0,0-.33.115h0c-.15.065-.17.07-.19.265a.914.914,0,0,0-.369.18l-.265.255h0c.035.245,0,.245-.145.34a1.663,1.663,0,0,0-.28.18c-.364.33-.19.175-.17.739a.716.716,0,0,1-.22-.075c-.055-.374,0-.25-.28-.335s-.28.065-.414.09-.225-.135-.439,0c-.12.085-.235.14-.265.285a1.812,1.812,0,0,0-.1.5c0,.524.5.559.624.31.085-.165.065-.25.33-.21a.659.659,0,0,1-.05.35c0,.065-.09.18-.055.27.19.075.195-.07.449.08,0,.25-.115.534.08.679s.155,0,.29,0,.12.065.255.09a.325.325,0,0,0,.09-.15c.09-.2.115-.1.32-.23l.06-.035.075.14c.15-.18.17,0,.345.045a.714.714,0,0,0,.17.03c.13,0,.14-.06.315,0l.07.025h0c0,.035.03.065.055.1l.354.345c.235.09.235-.08.5.175.11.1.06.1.12.24l.04.07a.576.576,0,0,0,.075.185c.12.155.285.06.449.22s.025.065.24.1c.33.05.2,0,.454.21.095.07.12.035.21.095a.434.434,0,0,1,0,.5c-.325.474-.215.394-.23.774,0,.215-.075.659-.275.714-.734.2-.31.35-.5.714a1.6,1.6,0,0,0-.135.21c-.145.34-.045.454-.5.379a.7.7,0,0,0,.06.09c.125.2.15.349-.115.4s-.13,0-.15.24c-.085.035-.12,0-.175.06.075.14,0,0,.135.1-.025.08-.045.155-.065.23-.05.185-.065,0-.08.225.075.04.13.03.195.12s-.08.265-.1.374c.11.165.2.335.429.354,0,.135.03.12-.09.15a.844.844,0,0,1-.4-.12,1.078,1.078,0,0,1-.394-.345,1.173,1.173,0,0,0-.095-.125c-.11-.145-.065-.21-.1-.3a.364.364,0,0,1-.07-.3c0-.055.09-.3,0-.26s.075.025-.06.09a1.6,1.6,0,0,1-.075-.33c-.035-.185-.08-.195-.1-.3-.045-.26.065-.29-.06-.724-.08-.285-.045-.964-.13-1.313a.639.639,0,0,0-.05-.14c-.08-.13-.275-.19-.429-.3h0c-.21-.15-.414-.739-.584-.959-.08-.11-.13-.06-.165-.23s0-.125.07-.25c-.26-.5.34-.5.215-1.049a.619.619,0,0,0-.165-.3c-.125.055-.065.085-.13.19l-.325-.125c-.3-.29-.145-.08-.225-.27-.185-.4-.354-.175-.574-.374-.095-.08-.115-.21-.275-.185-.245.03-.11.07-.359-.05a2.362,2.362,0,0,1-.564-.354c0-.285.075-.255-.14-.5a9.147,9.147,0,0,0-.215,1.972q0,.157,0,.315v.364h0l.03.31v.065c0,.025.025.18.04.275v.03a1.578,1.578,0,0,0,.055.3v.06a1.2,1.2,0,0,0,.055.26c.02.085,0,.03,0,.045l.075.295v.04l.075.26v.05l.09.285a.07.07,0,0,1,0,.03l.095.26v.045c.035.095.075.19.115.285h0l.12.27a.18.18,0,0,1,0,.045c.09.18.18.359.28.534v.04a4.755,4.755,0,0,0,.315.5v.03c.115.175.23.34.354.5v.025l.185.235h0l.2.24h0l.2.225h0c.14.15.29.3.444.439h0c.155.14.315.275.474.4h0c.165.13.33.255.5.374h0c.17.12.345.23.524.34h0c.185.1.369.2.559.3h0a9.152,9.152,0,0,0,13.231-8.188,8.723,8.723,0,0,0,.11-1.483ZM18.5,12.615l.075.155c.035.145-.08,0,.035.2a1.7,1.7,0,0,0,.265.325c-.055.16-.05.175-.21.19a2.82,2.82,0,0,1-.32.035c.03-.21-.03-.1,0-.22s.065-.035.11-.175c-.1-.16-.22-.05-.215-.379A.5.5,0,0,1,18.5,12.615Zm4.813,8.458c-.045.13-.09.285-.13.424s-.2.814-.454.569a.5.5,0,0,1-.025-.454c.155-.295,0-.225.065-.449s.185-.135.29-.23.115-.235.245-.3C23.43,20.814,23.36,20.933,23.315,21.073Zm4.094-4.284v.075h0Z" transform="translate(-3.005 -2.983)" fill="#fff"/>
  <path id="Trazado_66" data-name="Trazado 66" d="M31.879,36.42a4.518,4.518,0,0,1-3.223-1.346l-5.533-5.51A15.44,15.44,0,0,1,5,4.983,15.317,15.317,0,0,1,15.89.42h0A15.468,15.468,0,0,1,29.58,23.108l5.527,5.5h0a4.553,4.553,0,0,1-3.194,7.779Zm-8.556-9.741a1.272,1.272,0,0,1,.907.382l6.24,6.2a1.979,1.979,0,0,0,1.415.57h0a2.019,2.019,0,0,0,1.962-1.956,2,2,0,0,0-.57-1.42l-2.111-2.087-4.113-4.118a1.277,1.277,0,0,1-.183-1.58A12.9,12.9,0,0,0,15.9,3.032h0a12.865,12.865,0,1,0,6.759,23.84,1.3,1.3,0,0,1,.673-.194Z" transform="translate(-0.448 -0.42)" fill="#fff"/>
</svg>
