<svg xmlns="http://www.w3.org/2000/svg" width="42.829" height="42.807" viewBox="0 0 42.829 42.807">
  <g id="noun-search-map-4361538" transform="translate(-73.668 -18.676)">
    <path id="Trazado_161" data-name="Trazado 161" d="M210.359,159.532a.746.746,0,0,0,.743.034l3.482-1.741V145.768l-4.166,2.084h0a.76.76,0,0,0-.423.684v10.346a.752.752,0,0,0,.363.65Z" transform="translate(-126.386 -116.678)" fill="#fff"/>
    <path id="Trazado_162" data-name="Trazado 162" d="M363.919,162.65V152.3a.765.765,0,0,0-1.107-.684l-3.482,1.741v12.057l4.166-2.084h0a.76.76,0,0,0,.423-.684Z" transform="translate(-263.484 -121.975)" fill="#fff"/>
    <path id="Trazado_163" data-name="Trazado 163" d="M107.03,55.387A18.378,18.378,0,1,0,94.057,50a18.356,18.356,0,0,0,12.973,5.383ZM103.7,27.144l.056-.02a.778.778,0,0,1,.259-.036h.017a.757.757,0,0,1,.246.066c.012.005.024,0,.035.009l5.776,2.894,3.563-1.781a2.294,2.294,0,0,1,3.321,2.052V40.675a2.283,2.283,0,0,1-1.268,2.052l-5.273,2.641c-.011,0-.022,0-.033.008a.708.708,0,0,1-.615,0c-.012-.005-.024,0-.035-.008l-5.777-2.889-3.563,1.781h0A2.294,2.294,0,0,1,97.087,42.2V31.858a2.283,2.283,0,0,1,1.268-2.052l5.277-2.637h0a.666.666,0,0,1,.068-.024Zm-1.719-6.166a.765.765,0,0,1,.459,1.459,15.3,15.3,0,1,0,4.588-.7.765.765,0,1,1,0-1.53,16.82,16.82,0,1,1-5.048.773Z" transform="translate(-15.007)" fill="#fff"/>
    <path id="Trazado_164" data-name="Trazado 164" d="M289.259,148.064l-4.589-2.294v12.057l4.589,2.294Z" transform="translate(-194.942 -116.679)" fill="#fff"/>
    <path id="Trazado_165" data-name="Trazado 165" d="M463.4,411.617l8.28,8.251a2.318,2.318,0,0,0,3.186,0,2.228,2.228,0,0,0-.255-3.377l-9.158-6.75a20.2,20.2,0,0,1-2.053,1.877Z" transform="translate(-359.021 -359.018)" fill="#fff"/>
  </g>
</svg>
