<svg xmlns="http://www.w3.org/2000/svg" width="56.234" height="53.302" viewBox="0 0 56.234 53.302">
  <g id="noun-heart-1235503" transform="translate(-3.857 0)">
    <path id="Trazado_121" data-name="Trazado 121" d="M149.448,259.012a8.971,8.971,0,0,0-12.143-6.478,11.729,11.729,0,0,0-4.921,4.7c-1.64-1.16-4.05-2.6-6.075-2.73h0a8.971,8.971,0,0,0-9.15,10.3,10.249,10.249,0,0,0,2.845,5.274,26.546,26.546,0,0,0,4.12,3.332c3.716,2.621,11.149,7.952,11.22,7.984a1.922,1.922,0,0,0,2.7-.474l7.881-11.431a26.491,26.491,0,0,0,2.7-4.556,10.257,10.257,0,0,0,.82-5.927Z" transform="translate(-111.736 -228.455)" fill="#fff"/>
    <path id="Trazado_122" data-name="Trazado 122" d="M418.373,73.971a8.677,8.677,0,0,0-4.729-1.1,9.6,9.6,0,0,0-.98-4.62,7.151,7.151,0,0,0-10.944-1.282,8.113,8.113,0,0,0-2.159,4.216,20.326,20.326,0,0,0-.3,4.03c0,3.4-.1,10.188-.1,10.253a1.923,1.923,0,0,0,1.922,1.922l10.336-.038a20.4,20.4,0,0,0,4.03-.295,8.119,8.119,0,0,0,4.216-2.159,7.151,7.151,0,0,0-1.281-10.944Z" transform="translate(-361.56 -62.95)" fill="#fff"/>
    <path id="Trazado_123" data-name="Trazado 123" d="M109.746,66.508a17.487,17.487,0,0,0,3.486.256c2.929,0,8.727.09,8.727.09a1.922,1.922,0,0,0,1.922-1.922l-.038-8.8a17.551,17.551,0,0,0-.256-3.486,7.188,7.188,0,0,0-1.922-3.736,6.306,6.306,0,0,0-3.319-1.673,6.409,6.409,0,0,0-6.408,2.852,7.488,7.488,0,0,0-.974,3.844,8.26,8.26,0,0,0-3.793.872,6.376,6.376,0,0,0-1.16,9.778,7.187,7.187,0,0,0,3.736,1.922Z" transform="translate(-100.38 -47.157)" fill="#fff"/>
    <path id="Trazado_124" data-name="Trazado 124" d="M410.389,370.6a5.123,5.123,0,0,0,.09-2.422,3.966,3.966,0,0,0-5.658-2.268,4.483,4.483,0,0,0-1.762,1.922,10.89,10.89,0,0,0-.724,2.057c-.48,1.756-1.467,5.229-1.467,5.229a1.2,1.2,0,0,0,.846,1.467l5.293,1.41a10.933,10.933,0,0,0,2.134.41,4.485,4.485,0,0,0,2.563-.545,3.933,3.933,0,0,0,1.87-3.96,3.967,3.967,0,0,0-.973-2.069,4.655,4.655,0,0,0-2.211-1.23Z" transform="translate(-363.033 -329.016)" fill="#fff"/>
  </g>
</svg>
