<svg xmlns="http://www.w3.org/2000/svg" width="40" height="40" viewBox="0 0 40 40">
  <g id="noun_Home_2501082" transform="translate(42.974 95.998)">
    <g id="Layer_2" data-name="Layer 2" transform="translate(-42.974 -95.998)">
      <g id="Layer_1" data-name="Layer 1" transform="translate(0 0)">
        <path id="Trazado_68" data-name="Trazado 68" d="M39.594,20.673l-4.563-4.992h0L21.157.5a1.45,1.45,0,0,0-2.189,0L.469,20.741a1.8,1.8,0,0,0-.338,1.793,1.56,1.56,0,0,0,1.356,1.074,1.474,1.474,0,0,0,1.079-.472l2.066-2.26V38.248a1.619,1.619,0,0,0,1.542,1.687h8.91V25.564a1.231,1.231,0,0,1,1.141-1.248H23.87a1.227,1.227,0,0,1,1.172,1.248V40H33.86A1.619,1.619,0,0,0,35.4,38.315V20.943l1.973,2.125a1.395,1.395,0,0,0,2.158,0,1.759,1.759,0,0,0,.493-1.181A1.813,1.813,0,0,0,39.594,20.673Z" transform="translate(-0.026 -0.002)" fill="#fff"/>
      </g>
    </g>
  </g>
</svg>
