<svg xmlns="http://www.w3.org/2000/svg" width="109.12" height="105.517" viewBox="0 0 109.12 105.517">
  <g id="noun_hobbies_3683684" transform="translate(-7.537 -32)">
    <path id="Trazado_100" data-name="Trazado 100" d="M358.223,62.47A52.611,52.611,0,0,0,342.231,51.4L340.7,54.839a49,49,0,0,1,14.838,10.269Z" transform="translate(-260.455 -14.831)" fill="#fff"/>
    <path id="Trazado_101" data-name="Trazado 101" d="M74.594,54.839,73.063,51.4A53.051,53.051,0,0,0,44.8,82.019l3.556,1.248A49.12,49.12,0,0,1,74.594,54.839Z" transform="translate(-34.248 -14.831)" fill="#fff"/>
    <path id="Trazado_102" data-name="Trazado 102" d="M59.986,343.865A49.241,49.241,0,0,1,48.256,325.4L44.7,326.648a53.038,53.038,0,0,0,12.624,19.9Z" transform="translate(-34.172 -224.296)" fill="#fff"/>
    <path id="Trazado_103" data-name="Trazado 103" d="M417.6,363.378l2.921,2.355a52.754,52.754,0,0,0,5.252-7.82l-3.3-1.814A48.445,48.445,0,0,1,417.6,363.378Z" transform="translate(-319.243 -247.765)" fill="#fff"/>
    <path id="Trazado_104" data-name="Trazado 104" d="M246.611,219.305a11.305,11.305,0,1,0-11.305,11.305A11.308,11.308,0,0,0,246.611,219.305Zm-9.421.777L231,226.277l-2.661-2.661,5.111-5.111v-6.736h3.768v8.314Z" transform="translate(-171.242 -134.547)" fill="#fff"/>
    <rect id="Rectángulo_82" data-name="Rectángulo 82" width="9" height="4" transform="translate(19 83)" fill="#fff"/>
    <path id="Trazado_105" data-name="Trazado 105" d="M137.884,216h3.768a1.89,1.89,0,0,1,1.884,1.884v15.074a1.89,1.89,0,0,1-1.884,1.884h-3.768A1.89,1.89,0,0,1,136,232.958V217.884A1.89,1.89,0,0,1,137.884,216Z" transform="translate(-103.968 -140.663)" fill="#fff"/>
    <path id="Trazado_106" data-name="Trazado 106" d="M33.884,216h3.768a1.89,1.89,0,0,1,1.884,1.884v15.074a1.89,1.89,0,0,1-1.884,1.884H33.884A1.89,1.89,0,0,1,32,232.958V217.884A1.89,1.89,0,0,1,33.884,216Z" transform="translate(-24.463 -140.663)" fill="#fff"/>
    <path id="Trazado_107" data-name="Trazado 107" d="M104.958,448H89.884a1.884,1.884,0,1,0,0,3.768h15.262a10.023,10.023,0,0,1-.188-1.884Z" transform="translate(-67.273 -318.02)" fill="#fff"/>
    <path id="Trazado_108" data-name="Trazado 108" d="M176,449.884a5.669,5.669,0,0,0,5.653,5.653h26.379a5.669,5.669,0,0,0,5.653-5.653V448H176Z" transform="translate(-134.547 -318.02)" fill="#fff"/>
    <rect id="Rectángulo_83" data-name="Rectángulo 83" width="4" height="4" transform="translate(58 109)" fill="#fff"/>
    <rect id="Rectángulo_84" data-name="Rectángulo 84" width="3" height="4" transform="translate(38 107)" fill="#fff"/>
    <rect id="Rectángulo_85" data-name="Rectángulo 85" width="3" height="3" transform="translate(40 119)" fill="#fff"/>
    <rect id="Rectángulo_86" data-name="Rectángulo 86" width="4" height="4" transform="translate(45 111)" fill="#fff"/>
    <rect id="Rectángulo_87" data-name="Rectángulo 87" width="4" height="4" transform="translate(51 117)" fill="#fff"/>
    <rect id="Rectángulo_88" data-name="Rectángulo 88" width="4" height="4" transform="translate(51 105)" fill="#fff"/>
    <rect id="Rectángulo_89" data-name="Rectángulo 89" width="4" height="3" transform="translate(62 119)" fill="#fff"/>
    <path id="Trazado_109" data-name="Trazado 109" d="M388.727,193.256l1.719-1.719A14.106,14.106,0,0,0,394.379,184a14.106,14.106,0,0,0-7.537,3.933l-1.719,1.719a14.59,14.59,0,0,0-2.049,2.591v-2.591h-3.768v2.591a14.591,14.591,0,0,0-2.049-2.591l-1.719-1.719A14.106,14.106,0,0,0,368,184a14.106,14.106,0,0,0,3.933,7.537l1.719,1.719a14.036,14.036,0,0,0,5.653,3.462v6.124h-7.537v3.768h2.143l1.2,9.657a1.88,1.88,0,0,0,1.861,1.649h8.432a1.88,1.88,0,0,0,1.861-1.649l1.2-9.657h2.143v-3.768h-7.537v-6.124A14.036,14.036,0,0,0,388.727,193.256Z" transform="translate(-281.325 -116.2)" fill="#fff"/>
    <rect id="Rectángulo_90" data-name="Rectángulo 90" width="10.316" height="3.768" transform="matrix(0.406, -0.914, 0.914, 0.406, 99.603, 53.852)" fill="#fff"/>
    <rect id="Rectángulo_91" data-name="Rectángulo 91" width="4.122" height="3.768" transform="matrix(0.406, -0.914, 0.914, 0.406, 96.253, 61.382)" fill="#fff"/>
    <path id="Trazado_110" data-name="Trazado 110" d="M185.884,147.768h30.148a1.89,1.89,0,0,0,1.884-1.884V144H184v1.884A1.89,1.89,0,0,0,185.884,147.768Z" transform="translate(-140.663 -85.621)" fill="#fff"/>
    <path id="Trazado_111" data-name="Trazado 111" d="M240,64h0v8.032L246.03,68,240,64Z" transform="translate(-183.473 -24.463)" fill="#fff"/>
    <path id="Trazado_112" data-name="Trazado 112" d="M226.379,33.884A1.89,1.89,0,0,0,224.5,32H201.884A1.89,1.89,0,0,0,200,33.884V54.611h26.379ZM217.547,46.7l-6.03,4.028a3.779,3.779,0,0,1-5.229-1.036,3.664,3.664,0,0,1-.636-2.1V39.537a3.78,3.78,0,0,1,3.768-3.768,3.719,3.719,0,0,1,2.1.636h0l6.03,4.028a3.758,3.758,0,0,1,1.036,5.229,4.33,4.33,0,0,1-1.036,1.036Z" transform="translate(-152.894)" fill="#fff"/>
    <path id="Trazado_113" data-name="Trazado 113" d="M316.177,345.109v-4.875a1.907,1.907,0,0,0-.542-1.343l-3.768-3.768a1.891,1.891,0,0,0-2.661,0l-5.982,5.982a1.891,1.891,0,0,0,0,2.661l3.768,3.768a1.867,1.867,0,0,0,1.342.542h4.875l16.558,16.558a2.115,2.115,0,0,0,2.991-2.991Z" transform="translate(-231.386 -231.31)" fill="#fff"/>
    <rect id="Rectángulo_92" data-name="Rectángulo 92" width="10.316" height="3.768" transform="matrix(0.406, -0.914, 0.914, 0.406, 109.024, 53.852)" fill="#fff"/>
    <rect id="Rectángulo_93" data-name="Rectángulo 93" width="4.122" height="3.768" transform="matrix(0.406, -0.914, 0.914, 0.406, 105.674, 61.382)" fill="#fff"/>
  </g>
</svg>
