<svg xmlns="http://www.w3.org/2000/svg" width="14.738" height="35.377" viewBox="0 0 14.738 35.377">
  <g id="noun_options_3750500" transform="translate(1759.023 425.265)" opacity="0.99">
    <g id="Grupo_65" data-name="Grupo 65" transform="translate(-1759.023 -425.265)">
      <g id="Grupo_60" data-name="Grupo 60" transform="translate(0 0)">
        <g id="Grupo_59" data-name="Grupo 59">
          <path id="Trazado_46" data-name="Trazado 46" d="M413.365,87.943c0,.08-.007.161-.013.241a.438.438,0,0,0-.02.13c0-.011.074-.252.02-.1a2.622,2.622,0,0,1-.2.474c-.04.073-.1.141-.134.214.134-.268.06-.084-.013,0a4.115,4.115,0,0,1-.449.432c-.033.027-.074.054-.1.08.234-.21.174-.126.1-.076-.094.061-.188.126-.295.187-.08.046-.167.1-.248.138a1.168,1.168,0,0,1-.134.065l-.134.065c.067-.031.134-.057.2-.088-.228.076-.429.172-.663.245-.114.038-.234.069-.355.1-.06.019-.255.065,0,0,.288-.069-.027,0-.087.015-.241.05-.482.088-.737.119l-.221.023c-.161.015-.3-.015.127-.008-.154,0-.308.015-.462.019-.275,0-.563-.031-.837-.019.02,0,.442.042.174.011-.06-.008-.121-.011-.181-.019-.147-.015-.295-.038-.442-.061-.127-.019-.255-.046-.382-.069-.067-.015-.141-.034-.208-.046.02,0,.4.1.154.034s-.5-.145-.73-.229c-.107-.042-.214-.092-.322-.13.013,0,.328.157.134.057-.04-.023-.087-.042-.134-.065a6.235,6.235,0,0,1-.61-.359c-.08-.05-.134-.134.1.076l-.1-.08c-.074-.061-.147-.122-.214-.187s-.134-.13-.194-.2l-.08-.092c-.027-.031-.047-.061-.074-.092.033.046.067.092.1.134-.06-.149-.181-.287-.248-.436-.027-.069-.054-.134-.074-.2-.007-.031-.06-.206-.013-.027s0-.019,0-.057a2.06,2.06,0,0,1-.007-.455c.007-.046.013-.088.02-.13.02-.13-.08.26-.02.073a1.913,1.913,0,0,1,.094-.252,2.987,2.987,0,0,1,.234-.413c.074-.119-.188.229-.047.065.027-.031.047-.061.074-.092a2.579,2.579,0,0,1,.214-.222c.067-.065.141-.126.214-.187.04-.034.094-.065.127-.1-.007.008-.275.187-.1.076s.368-.233.576-.34c.114-.061.469-.184.033-.027.1-.034.188-.08.288-.115.248-.092.5-.172.77-.245.114-.031.241-.027-.154.034.054-.008.114-.027.167-.038.127-.027.255-.05.382-.073s.261-.042.4-.057c.161-.019.65-.034.094-.015.281-.008.556-.023.837-.019.127,0,.248.008.368.015.335.011-.348-.034-.127-.011.087.008.181.015.268.027.308.034.61.092.9.153.121.023.194.08-.154-.038.074.027.161.042.241.065.134.038.261.076.389.122s.248.088.368.138c.047.019.094.042.141.057-.409-.149-.167-.073-.067-.023a6.128,6.128,0,0,1,.643.371c.087.057.174.161-.074-.057.04.034.087.069.127.1a3.469,3.469,0,0,1,.261.233c.074.073.141.145.208.222.027.031.047.065.074.092-.228-.222-.087-.122-.034-.042a2.217,2.217,0,0,1,.241.493c.013.042.027.084.04.13.033.1-.047-.26-.013-.046-.007.107,0,.206,0,.3.007.5.764.979,1.675.956s1.681-.421,1.675-.956c-.027-1.8-2.016-3.353-4.957-3.972a11.3,11.3,0,0,0-8.031,1.258A3.675,3.675,0,0,0,402,87.675a2.85,2.85,0,0,0,1.018,2.416c1.628,1.548,4.8,2.305,7.877,1.957,3.376-.378,5.794-2.179,5.821-4.11.007-.5-.777-.979-1.675-.956S413.372,87.408,413.365,87.943Z" transform="translate(-401.976 -83.735)"/>
        </g>
      </g>
      <g id="Grupo_62" data-name="Grupo 62" transform="translate(0 13.492)">
        <g id="Grupo_61" data-name="Grupo 61" transform="translate(0 0)">
          <path id="Trazado_47" data-name="Trazado 47" d="M413.365,406.343c0,.08-.007.161-.013.241a.438.438,0,0,0-.02.13c0-.011.074-.252.02-.1a2.622,2.622,0,0,1-.2.474c-.04.073-.1.141-.134.214.134-.268.06-.084-.013,0a4.116,4.116,0,0,1-.449.432c-.033.027-.074.054-.1.08.234-.21.174-.126.1-.076-.094.061-.188.126-.295.187-.08.046-.167.1-.248.138a1.169,1.169,0,0,1-.134.065l-.134.065c.067-.031.134-.057.2-.088-.228.076-.429.172-.663.245-.114.038-.234.069-.355.1-.06.019-.255.065,0,0,.288-.069-.027,0-.087.015-.241.05-.482.088-.737.119l-.221.023c-.161.015-.3-.015.127-.008-.154,0-.308.015-.462.019-.275,0-.563-.031-.837-.019.02,0,.442.042.174.011-.06-.008-.121-.011-.181-.019-.147-.015-.295-.038-.442-.061-.127-.019-.255-.046-.382-.069-.067-.015-.141-.034-.208-.046.02,0,.4.1.154.034s-.5-.145-.73-.229c-.107-.042-.214-.092-.322-.13.013,0,.328.157.134.057-.04-.023-.087-.042-.134-.065a6.235,6.235,0,0,1-.61-.359c-.08-.05-.134-.134.1.076l-.1-.08c-.074-.061-.147-.122-.214-.187s-.134-.13-.194-.2l-.08-.092c-.027-.031-.047-.061-.074-.092.033.046.067.092.1.134-.06-.149-.181-.287-.248-.436-.027-.069-.054-.134-.074-.2-.007-.031-.06-.206-.013-.027s0-.019,0-.057a2.06,2.06,0,0,1-.007-.455c.007-.046.013-.088.02-.13.02-.13-.08.26-.02.073a1.91,1.91,0,0,1,.094-.252,2.986,2.986,0,0,1,.234-.413c.074-.118-.188.229-.047.065.027-.031.047-.061.074-.092a2.583,2.583,0,0,1,.214-.222c.067-.065.141-.126.214-.187.04-.034.094-.065.127-.1-.007.008-.275.187-.1.076s.368-.233.576-.34c.114-.061.469-.184.033-.027.1-.034.188-.08.288-.115.248-.092.5-.172.77-.245.114-.031.241-.027-.154.034.054-.008.114-.027.167-.038.127-.027.255-.05.382-.073s.261-.042.4-.057c.161-.019.65-.034.094-.015.281-.008.556-.023.837-.019.127,0,.248.008.368.015.335.011-.348-.034-.127-.011.087.008.181.015.268.027.308.034.61.092.9.153.121.023.194.08-.154-.038.074.027.161.042.241.065.134.038.261.076.389.122s.248.088.368.138c.047.019.094.042.141.057-.409-.149-.167-.073-.067-.023a6.132,6.132,0,0,1,.643.371c.087.057.174.161-.074-.057.04.034.087.069.127.1a3.469,3.469,0,0,1,.261.233c.074.073.141.145.208.222.027.031.047.065.074.092-.228-.222-.087-.122-.034-.042a2.218,2.218,0,0,1,.241.493c.013.042.027.084.04.13.033.1-.047-.26-.013-.046-.007.107,0,.2,0,.3.007.5.764.979,1.675.956s1.681-.421,1.675-.956c-.027-1.8-2.016-3.353-4.957-3.972a11.3,11.3,0,0,0-8.031,1.258A3.676,3.676,0,0,0,402,406.076a2.85,2.85,0,0,0,1.018,2.416c1.628,1.548,4.8,2.305,7.877,1.957,3.376-.379,5.794-2.179,5.821-4.11.007-.5-.777-.979-1.675-.956S413.372,405.808,413.365,406.343Z" transform="translate(-401.976 -402.135)"/>
        </g>
      </g>
      <g id="Grupo_64" data-name="Grupo 64" transform="translate(0 26.98)">
        <g id="Grupo_63" data-name="Grupo 63">
          <path id="Trazado_48" data-name="Trazado 48" d="M413.365,724.643c0,.08-.007.161-.013.241a.437.437,0,0,0-.02.13c0-.012.074-.252.02-.1a2.622,2.622,0,0,1-.2.474c-.04.073-.1.141-.134.214.134-.268.06-.084-.013,0a4.108,4.108,0,0,1-.449.432c-.033.027-.074.053-.1.08.234-.21.174-.126.1-.076-.094.061-.188.126-.295.187-.08.046-.167.1-.248.138a1.174,1.174,0,0,1-.134.065l-.134.065c.067-.031.134-.057.2-.088-.228.076-.429.172-.663.245-.114.038-.234.069-.355.1-.06.019-.255.065,0,0,.288-.069-.027,0-.087.015-.241.05-.482.088-.737.119l-.221.023c-.161.015-.3-.015.127-.008-.154,0-.308.015-.462.019-.275,0-.563-.031-.837-.019.02,0,.442.042.174.011-.06-.008-.121-.011-.181-.019-.147-.015-.295-.038-.442-.061-.127-.019-.255-.046-.382-.069-.067-.015-.141-.034-.208-.046.02,0,.4.1.154.034s-.5-.145-.73-.229c-.107-.042-.214-.092-.322-.13.013,0,.328.157.134.057-.04-.023-.087-.042-.134-.065a6.242,6.242,0,0,1-.61-.359c-.08-.05-.134-.134.1.076l-.1-.08c-.074-.061-.147-.122-.214-.187s-.134-.13-.194-.2l-.08-.092c-.027-.031-.047-.061-.074-.092.033.046.067.092.1.134-.06-.149-.181-.287-.248-.436-.027-.069-.054-.134-.074-.2-.007-.031-.06-.206-.013-.027s0-.019,0-.057a2.06,2.06,0,0,1-.007-.455c.007-.046.013-.088.02-.13.02-.13-.08.26-.02.073a1.912,1.912,0,0,1,.094-.252,2.99,2.99,0,0,1,.234-.413c.074-.118-.188.229-.047.065.027-.031.047-.061.074-.092a2.57,2.57,0,0,1,.214-.222c.067-.065.141-.126.214-.187.04-.034.094-.065.127-.1-.007.008-.275.187-.1.076s.368-.233.576-.34c.114-.061.469-.184.033-.027.1-.034.188-.08.288-.115.248-.092.5-.172.77-.245.114-.031.241-.027-.154.034.054-.008.114-.027.167-.038.127-.027.255-.05.382-.073s.261-.042.4-.057c.161-.019.65-.034.094-.015.281-.008.556-.023.837-.019.127,0,.248.008.368.015.335.011-.348-.034-.127-.011.087.008.181.015.268.027.308.034.61.092.9.153.121.023.194.08-.154-.038.074.027.161.042.241.065.134.038.261.076.389.122s.248.088.368.138c.047.019.094.042.141.057-.409-.149-.167-.073-.067-.023a6.126,6.126,0,0,1,.643.371c.087.057.174.161-.074-.057.04.034.087.069.127.1a3.476,3.476,0,0,1,.261.233c.074.073.141.145.208.222.027.031.047.065.074.092-.228-.222-.087-.122-.034-.042a2.216,2.216,0,0,1,.241.493c.013.042.027.084.04.13.033.1-.047-.26-.013-.046-.007.107,0,.206,0,.3.007.5.764.979,1.675.956s1.681-.421,1.675-.956c-.027-1.8-2.016-3.353-4.957-3.972a11.3,11.3,0,0,0-8.031,1.258A3.676,3.676,0,0,0,402,724.376a2.85,2.85,0,0,0,1.018,2.416c1.628,1.548,4.8,2.305,7.877,1.957,3.376-.378,5.794-2.179,5.821-4.11.007-.5-.777-.979-1.675-.956S413.372,724.108,413.365,724.643Z" transform="translate(-401.976 -720.435)"/>
        </g>
      </g>
    </g>
  </g>
</svg>
