<svg xmlns="http://www.w3.org/2000/svg" width="36" height="36" viewBox="0 0 36 36">
  <g id="noun_Settings_3750418" transform="translate(-11.087 -82.9)">
    <path id="Trazado_32" data-name="Trazado 32" d="M114.848,95.226a4.3,4.3,0,0,0-.054-.952,1.846,1.846,0,0,0-1.823-1.368h-1.046a1.484,1.484,0,0,0-.162-.008,2.282,2.282,0,0,1-.241-.067s-.008,0-.012,0h0c-.05-.025-.1-.05-.141-.075l-.1-.062s-.008,0-.012-.008c.029.029-.108-.071,0,0l-.012-.012c-.033-.033-.071-.062-.1-.1-.012-.012-.071-.083-.075-.083-.046-.067-.083-.137-.125-.208a.1.1,0,0,1-.012-.029v0s0-.008,0-.012h0c-.017-.046-.033-.1-.05-.141-.087-.258-.187-.516-.291-.765s-.2-.482-.311-.719c-.054-.116-.112-.233-.166-.349a.068.068,0,0,0-.012-.025.338.338,0,0,0-.021-.042.231.231,0,0,1,.017.033,1.877,1.877,0,0,1-.058-.2c0-.021-.012-.1-.012-.091a.5.5,0,0,1,0-.079c0-.05,0-.1,0-.154v-.021c-.029.125,0-.042,0,0,0-.008,0-.017,0-.025a1.7,1.7,0,0,1,.083-.283s0,0,0,.008,0-.008.008-.012v0c0-.008.012-.017.021-.033.033-.054.062-.108.1-.158.012-.017.017-.029.025-.037-.042.037.033-.058,0,0a.21.21,0,0,0,.037-.033,386.874,386.874,0,0,0,.091-.091c.075-.075.149-.146.22-.22.162-.162.328-.324.49-.491a1.84,1.84,0,0,0,.249-2.336,5.3,5.3,0,0,0-.623-.673l-2.117-2.12c-.187-.187-.37-.374-.556-.557a1.841,1.841,0,0,0-2.479-.087c-.307.258-.577.574-.864.856l-.062.062a.21.21,0,0,0-.033.037c.058-.033-.033.042,0,0l-.037.021-.1.067h0s-.062.033-.091.05c.021-.008.029-.008,0,0s-.021.008,0,0c-.033.012-.091.033-.1.037-.037.012-.079.025-.116.033-.017,0-.1.017-.112.017a2.013,2.013,0,0,1-.224,0s-.071-.008-.091-.012c-.05-.012-.1-.029-.149-.042a.193.193,0,0,1-.037-.012,0,0,0,0,1,0,0s-.008,0-.012,0,0,0,.008,0c-.05-.021-.1-.05-.149-.075-.129-.062-.257-.125-.386-.179-.482-.216-.972-.391-1.466-.578h0a0,0,0,0,1,0,0h-.008a.33.33,0,0,1-.037-.017c-.05-.029-.1-.054-.149-.083l-.058-.037h0s-.012-.008-.037-.029c.012.008.021.017.033.025a.151.151,0,0,1-.037-.033,1.645,1.645,0,0,0-.12-.121l-.037-.042a.229.229,0,0,0,.029.037c-.021-.025-.029-.037-.029-.037h0a2,2,0,0,1-.133-.225c.017.029-.05-.137-.058-.17s-.021-.087-.029-.129v.012c0-.008,0-.012,0-.017v-.012c0-.079,0-.162,0-.241v-.728a2.63,2.63,0,0,0-.071-.765,1.823,1.823,0,0,0-.843-1.077,2.367,2.367,0,0,0-1.216-.237H94.77a1.865,1.865,0,0,0-1.644.89,3.171,3.171,0,0,0-.253,1.7v.337a.706.706,0,0,1,0,.091.156.156,0,0,1,0,.046c0-.008,0-.012,0-.012a.178.178,0,0,1-.008.05c0-.012,0-.025,0-.042a.371.371,0,0,1-.008.046,2.381,2.381,0,0,1-.071.245v0c.012-.021.017-.029.021-.029s-.042.083-.021.029l-.012.025c-.021.033-.033.067-.054.1s-.05.079-.075.116c.033-.033,0,0-.012.017,0,0,.008-.012.012-.017s-.012.017-.025.025c-.025.025-.05.054-.079.079s-.05.046-.075.067a0,0,0,0,0,0,0,.114.114,0,0,0,.021-.017s-.017.012-.033.025l.008-.008a2.277,2.277,0,0,1-.216.129.247.247,0,0,0-.025.017c.075-.017-.079.046,0,0a.1.1,0,0,0-.037.012l-.149.05c-.245.087-.49.179-.727.279-.266.108-.527.22-.789.345-.1.05-.2.1-.307.15a.07.07,0,0,1-.021.008c.1-.025-.042.021,0,0-.008,0-.025,0-.037.008-.062.017-.12.033-.183.046-.008,0-.017,0-.025.008.042,0-.12.029,0,0h-.021c-.05,0-.1,0-.154,0a.5.5,0,0,1-.079,0s-.071-.008-.091-.012a1.438,1.438,0,0,1-.228-.067.936.936,0,0,0-.108-.058,1.256,1.256,0,0,1-.137-.087s-.091-.087-.091-.087A.392.392,0,0,1,89,83.361l-.249-.249a2.813,2.813,0,0,0-1.441-.994,1.914,1.914,0,0,0-1.719.6l-1.935,1.937-.876.877a2.109,2.109,0,0,0-.7,1.347,1.82,1.82,0,0,0,.482,1.351c.116.129.245.245.365.366.154.154.3.3.453.457.029.029.054.058.083.087l.012.012,0,0c.012.012.025.029.029.033.033.054.062.108.1.158a.343.343,0,0,0,.029.054s0-.012,0-.017.008.012.008.017h0a.821.821,0,0,1,.033.108c.017.05.025.1.037.15,0,.017.008.029.008.033,0-.042.012.037,0,0v.042c0,.042,0,.083,0,.125,0,.008-.012.133-.008.121a1.43,1.43,0,0,1-.062.229.174.174,0,0,1-.008.025.133.133,0,0,1,.021-.037s-.025.062-.021.042a.1.1,0,0,1-.017.029c-.021.046-.046.091-.066.137-.066.141-.133.279-.2.424-.1.237-.208.478-.3.723-.046.121-.091.241-.137.366-.017.05-.037.1-.054.15l-.05.15a.2.2,0,0,1-.012.029c0-.008.008-.012.008-.017a.042.042,0,0,1-.008.021c0,.012-.008.021-.012.021a.13.13,0,0,0,.008-.029.932.932,0,0,1-.042.087c-.017.033-.037.067-.058.1l-.054.075c.017-.017.025-.025,0,0s-.017.017,0,0c-.021.025-.058.067-.058.067-.025.025-.054.05-.079.079a.071.071,0,0,1-.025.025c.075-.046-.05.058,0,0a.087.087,0,0,0-.025.017c-.066.042-.133.083-.2.116,0,0-.091.037-.1.042-.037.012-.075.021-.108.029a.373.373,0,0,1-.066.012c.033-.008-.1.008-.112.012h-.2a5.193,5.193,0,0,0-1.5.079,1.844,1.844,0,0,0-1.287,1.763c-.012.815,0,1.634,0,2.449v1.43a3.416,3.416,0,0,0,.071.964,1.855,1.855,0,0,0,1.831,1.314H81.8c.037,0,.079,0,.116,0h.033c-.05-.017.062,0,0,0a.266.266,0,0,0,.029.008,2.365,2.365,0,0,1,.228.067h0a.183.183,0,0,1,.033.012l-.033-.012c.012.008.058.029.075.037a1.141,1.141,0,0,1,.12.071l.054.037h0l.062.058.1.1c.012.012.021.017.025.025-.037-.067.05.046,0,0a.239.239,0,0,0,.017.029c.042.071.087.137.125.212v0a.1.1,0,0,0,.017.033.2.2,0,0,1-.012-.029c0,.012.017.042.021.054.021.075.05.15.075.22.087.245.179.486.282.728s.2.478.316.715c.05.1.1.2.149.3h0s.025.075.029.091a1.153,1.153,0,0,1,.046.2v-.017a.071.071,0,0,0,0,.029.015.015,0,0,0,0-.012v.033c0,.05,0,.1,0,.154a.847.847,0,0,0,0,.091c0,.025-.012.05-.017.075a1.487,1.487,0,0,1-.042.146.9.9,0,0,1-.037.083h0a.671.671,0,0,1-.042.075c-.012.025-.075.112-.091.137,0,0,0,0,0,.008h0a.013.013,0,0,1,0-.008c-.017.012-.079.087-.087.091-.017.021-.037.037-.054.058-.079.079-.158.154-.233.233l-.473.474a1.841,1.841,0,0,0-.12,2.474c.158.2.353.366.527.545l1.042,1.043c.54.54,1.067,1.089,1.615,1.617a1.837,1.837,0,0,0,2.52.042c.291-.262.548-.557.83-.827,0,0,.058-.054.083-.079,0,0-.008.008-.012.008l.012-.012c.017-.012.012-.008,0,0,.025-.017.091-.067.091-.067.033-.021.071-.042.108-.062a.076.076,0,0,0,.033-.025c-.062.017.058-.042,0,0a.169.169,0,0,1,.042-.012l.116-.037c.042-.012.079-.017.12-.029.008,0,.021,0,.025,0H89.65c.025,0,.037,0,.042-.008a.157.157,0,0,1-.033,0,.556.556,0,0,1,.083,0h.187a.015.015,0,0,1-.012,0,.071.071,0,0,1,.029,0h-.017a1.337,1.337,0,0,1,.253.067s.05.021.058.025l.208.1c.116.054.232.108.353.162.262.116.527.229.793.333.108.042.22.083.328.121l.183.062a1.1,1.1,0,0,0,.125.046,1.567,1.567,0,0,1,.212.125s.008,0,.012.008h0c.033.029.066.058.1.091s.046.046.066.071v0s.021.025.033.037,0,0,0,.008c.029.046.062.1.087.141a1.105,1.105,0,0,0,.05.1,1.807,1.807,0,0,1,.058.2.658.658,0,0,0,.017.087c0,.021,0,.042,0,.062,0,.075,0,.15,0,.224v.719a2.486,2.486,0,0,0,.087.782,1.8,1.8,0,0,0,.876,1.048,2.5,2.5,0,0,0,1.2.212h1.337c.868,0,1.735,0,2.6,0a1.845,1.845,0,0,0,1.673-.964,3.545,3.545,0,0,0,.212-1.667v-.328a.87.87,0,0,1,0-.1s.012-.079.021-.1.021-.075.029-.108c0-.012.046-.108.042-.1a1.11,1.11,0,0,1,.1-.179.654.654,0,0,1,.05-.062v0h0a.5.5,0,0,1,.046-.05,1.135,1.135,0,0,1,.1-.1l.012-.012a.126.126,0,0,0-.029.021l.037-.029-.008.008c.021-.017.046-.029.066-.046s.066-.042.1-.058c0,0,.05-.021.079-.037a.031.031,0,0,1-.017,0s.008,0,.021-.008c.037-.017.021-.008,0,0l.116-.042h0l.145-.05c.257-.091.511-.191.76-.3s.5-.216.751-.333c.046-.021.091-.046.137-.067a1.283,1.283,0,0,0,.125-.058,1.474,1.474,0,0,1,.233-.062c-.017,0,.112-.008.12-.008h.145c.017,0,.037,0,.042,0h-.033a1.137,1.137,0,0,1,.162.037l.116.037c.008,0,.017,0,.025.008-.008-.008.042.008.046.012a.422.422,0,0,1-.046-.012.067.067,0,0,0,.025.012l.137.075s.116.091.091.067c.141.125.27.266.4.395.149.15.3.3.448.449a1.832,1.832,0,0,0,2.695-.1l.818-.819c.668-.669,1.337-1.334,2-2a2.066,2.066,0,0,0,.685-1.384,1.848,1.848,0,0,0-.531-1.343c-.12-.125-.245-.245-.365-.366-.137-.137-.278-.274-.415-.416-.025-.025-.05-.05-.075-.079,0,0-.075-.1-.075-.1-.021-.033-.042-.071-.062-.108a.232.232,0,0,0-.021-.033c.017.054-.054-.087,0,0,0,0,0-.008,0-.017-.021-.05-.033-.1-.05-.146a1.029,1.029,0,0,1-.029-.121c0-.008,0-.017,0-.025,0,.042-.029-.125,0,0v-.025a2.256,2.256,0,0,1,0-.237.765.765,0,0,0,.021-.116c.008-.042.025-.079.033-.121a.211.211,0,0,0,.008-.037c-.021.042.025-.1,0,0,0,0,0-.012.008-.021.025-.058.054-.112.083-.166.05-.1.1-.212.149-.316.22-.486.419-.985.59-1.488,0-.012.008-.029.012-.042-.042.071,0-.012,0-.021s0,0,0,.012c0,0,.008-.012.012-.017.017-.033.033-.067.054-.1s.05-.079.079-.121a.013.013,0,0,0,0-.008c-.079.075.037-.054,0,0a.09.09,0,0,1,.021-.017c.025-.025.05-.054.079-.083,0,0,.042-.037.066-.062-.021.017-.033.021,0,0s.021-.017,0,0c.025-.021.071-.054.071-.054a1.649,1.649,0,0,1,.145-.083c.008,0,.017-.012.025-.017-.075.025.1-.058,0,0,0,0,0,0,.008,0,.046-.017.087-.033.133-.046a1.086,1.086,0,0,1,.112-.025c.008,0,.017,0,.025-.008h.012c.087-.008.17-.008.257-.008a6.489,6.489,0,0,0,1.449-.054,1.842,1.842,0,0,0,1.366-1.779c0-.287,0-.574,0-.861V95.226Zm-10.317,1.68a8.439,8.439,0,0,1-.108,1.251,7.723,7.723,0,0,1-6.016,6.273,7.825,7.825,0,0,1-4.775-.545,7.682,7.682,0,0,1-4.447-7.562,7.81,7.81,0,0,1,1.752-4.336,7.717,7.717,0,0,1,8.511-2.32,7.857,7.857,0,0,1,3.662,2.79,7.691,7.691,0,0,1,1.416,4.44v.008Z" transform="translate(-67.779 4)" fill="#fff"/>
  </g>
</svg>
