<svg xmlns="http://www.w3.org/2000/svg" width="80.638" height="83.325" viewBox="0 0 80.638 83.325">
  <g id="noun-setting-4816387" transform="translate(-87.5 -17.5)">
    <path id="Trazado_116" data-name="Trazado 116" d="M116.093,263.758h-3.428a4.617,4.617,0,0,1-4.486-3.5l-.608-2.43h0a21.87,21.87,0,0,1-3.188-1.321l-2.15,1.29a4.625,4.625,0,0,1-5.648-.7l-2.424-2.424a4.617,4.617,0,0,1-.7-5.645l1.29-2.152h0a21.862,21.862,0,0,1-1.322-3.188L91,243.08a4.618,4.618,0,0,1-3.5-4.487v-3.428a4.617,4.617,0,0,1,3.5-4.486l2.43-.608h0a21.87,21.87,0,0,1,1.321-3.188l-1.29-2.15a4.618,4.618,0,0,1,.7-5.648l2.425-2.425a4.62,4.62,0,0,1,5.646-.7l2.153,1.29h0a21.862,21.862,0,0,1,3.188-1.322l.608-2.432a4.617,4.617,0,0,1,4.485-3.5h3.428a4.617,4.617,0,0,1,4.486,3.5l.608,2.43h0a21.843,21.843,0,0,1,3.188,1.321l2.15-1.29a4.621,4.621,0,0,1,5.649.7l2.426,2.423h0a4.621,4.621,0,0,1,.693,5.648l-1.29,2.15h0a21.88,21.88,0,0,1,1.323,3.189l2.43.608h0a4.616,4.616,0,0,1,3.5,4.487v3.428a4.616,4.616,0,0,1-3.5,4.486l-2.43.608h0a22.028,22.028,0,0,1-1.323,3.19l1.29,2.15a4.621,4.621,0,0,1-.691,5.646l-2.428,2.427a4.619,4.619,0,0,1-5.646.7l-2.152-1.292h0a21.8,21.8,0,0,1-3.188,1.322l-.608,2.432a4.618,4.618,0,0,1-4.487,3.5Zm-2.842-5.376h2.255l.841-3.369a2.689,2.689,0,0,1,1.973-1.96,16.529,16.529,0,0,0,4.7-1.952,2.7,2.7,0,0,1,2.783-.009l2.979,1.789,1.593-1.594-1.787-2.98h0a2.688,2.688,0,0,1,.01-2.783,16.523,16.523,0,0,0,1.952-4.7,2.687,2.687,0,0,1,1.961-1.974l3.369-.841v-2.255l-3.368-.841a2.687,2.687,0,0,1-1.961-1.974,16.523,16.523,0,0,0-1.952-4.7,2.686,2.686,0,0,1-.009-2.783l1.787-2.98-1.593-1.594-2.979,1.789a2.682,2.682,0,0,1-2.783-.009,16.522,16.522,0,0,0-4.7-1.952,2.689,2.689,0,0,1-1.973-1.96l-.842-3.369h-2.255l-.841,3.369a2.689,2.689,0,0,1-1.973,1.96,16.529,16.529,0,0,0-4.7,1.952,2.682,2.682,0,0,1-2.783.009l-2.979-1.789-1.595,1.595,1.789,2.979h0a2.689,2.689,0,0,1-.009,2.783,16.522,16.522,0,0,0-1.952,4.7,2.689,2.689,0,0,1-1.96,1.973l-3.37.842v2.255l3.369.841a2.689,2.689,0,0,1,1.96,1.973,16.529,16.529,0,0,0,1.952,4.7,2.686,2.686,0,0,1,.009,2.783l-1.789,2.979,1.595,1.595,2.979-1.789h0a2.7,2.7,0,0,1,2.783.009,16.523,16.523,0,0,0,4.7,1.952,2.689,2.689,0,0,1,1.973,1.96Zm23.2-22.489h.005Z" transform="translate(0 -162.932)" fill="#fff"/>
    <path id="Trazado_117" data-name="Trazado 117" d="M203.252,336.5a10.765,10.765,0,1,1,7.6-3.153A10.749,10.749,0,0,1,203.252,336.5Zm0-16.128a5.381,5.381,0,1,0,3.8,1.576A5.378,5.378,0,0,0,203.252,320.376Z" transform="translate(-88.872 -251.805)" fill="#fff"/>
    <path id="Trazado_118" data-name="Trazado 118" d="M323.225,65.883h-3.065a4.4,4.4,0,0,1-4.274-3.323l-.491-2.016a18.887,18.887,0,0,1-2.575-1.071l-1.166.7h0a2.688,2.688,0,1,1-2.772-4.6l2.5-1.505a2.684,2.684,0,0,1,2.8.014,13.5,13.5,0,0,0,4.059,1.684,2.691,2.691,0,0,1,2.008,1.983l.67,2.761h1.549l.672-2.761h0a2.689,2.689,0,0,1,2.008-1.982,13.494,13.494,0,0,0,4.058-1.684,2.7,2.7,0,0,1,2.8-.017l2.465,1.481,1.079-1.079L334.065,52a2.694,2.694,0,0,1,.019-2.8,13.445,13.445,0,0,0,1.682-4.057,2.688,2.688,0,0,1,1.982-2.006l2.761-.674V40.919l-2.761-.673h0a2.686,2.686,0,0,1-1.982-2.006,13.462,13.462,0,0,0-1.683-4.057,2.694,2.694,0,0,1-.019-2.8l1.481-2.466-1.079-1.079L332,29.321a2.691,2.691,0,0,1-2.8-.017,13.5,13.5,0,0,0-4.059-1.684,2.689,2.689,0,0,1-2.008-1.982l-.671-2.761h-1.549l-.672,2.761h0a2.689,2.689,0,0,1-2.008,1.982A13.494,13.494,0,0,0,314.18,29.3a2.685,2.685,0,0,1-2.8.017l-2.465-1.481-1.079,1.078,1.481,2.468h0a2.691,2.691,0,0,1-.019,2.8,13.405,13.405,0,0,0-1.682,4.055,2.691,2.691,0,0,1-1.982,2.008l-2.761.674v1.546l2.761.673a2.687,2.687,0,0,1,1.982,2.008A13.426,13.426,0,0,0,309.3,49.2a2.691,2.691,0,0,1,.019,2.8l-1.588,2.648a2.688,2.688,0,0,1-4.668,2.556,4.344,4.344,0,0,1-.2-4.892l1.045-1.742h0a18.758,18.758,0,0,1-1.073-2.577l-2-.487a4.4,4.4,0,0,1-3.34-4.279V40.159a4.392,4.392,0,0,1,3.327-4.274l2.011-.491a18.818,18.818,0,0,1,1.073-2.577l-1.054-1.759a4.386,4.386,0,0,1,.645-5.4l2.15-2.15a4.4,4.4,0,0,1,5.43-.632l1.732,1.04a18.786,18.786,0,0,1,2.578-1.072l.486-2h0a4.4,4.4,0,0,1,4.282-3.343h3.065a4.4,4.4,0,0,1,4.274,3.323l.491,2.015h0a18.814,18.814,0,0,1,2.577,1.073l1.756-1.054a4.391,4.391,0,0,1,5.407.645l2.15,2.15a4.4,4.4,0,0,1,.635,5.427l-1.042,1.736a18.88,18.88,0,0,1,1.071,2.577l2,.487a4.4,4.4,0,0,1,3.342,4.279v3.065a4.395,4.395,0,0,1-3.329,4.274l-2.011.491a18.881,18.881,0,0,1-1.071,2.577l1.055,1.757a4.39,4.39,0,0,1-.649,5.406l-2.15,2.15a4.4,4.4,0,0,1-5.429.632l-1.732-1.04h0a18.757,18.757,0,0,1-2.578,1.072l-.486,2h0a4.4,4.4,0,0,1-4.28,3.343Zm11.853-9.972.013.008Zm.848-.811.008.013Zm-28.452-.018-.005.008ZM335.92,28.293l-.008.013Zm-28.47-.027.012.018Zm.845-.8.013.008Zm26.819-.014-.016.01Z" transform="translate(-177.746)" fill="#fff"/>
    <path id="Trazado_119" data-name="Trazado 119" d="M404.084,133.327a9.251,9.251,0,1,1,6.53-2.709,9.237,9.237,0,0,1-6.53,2.709Zm0-13.1a3.868,3.868,0,1,0,2.731,1.133,3.864,3.864,0,0,0-2.731-1.133Z" transform="translate(-260.137 -82.396)" fill="#fff"/>
  </g>
</svg>
