<svg id="noun_Star_690028" xmlns="http://www.w3.org/2000/svg" width="31.968" height="29.455" viewBox="0 0 31.968 29.455">
  <path id="Trazado_86" data-name="Trazado 86" d="M34.014,17.857a.876.876,0,0,0-.826-.586h0l-10.172,0L18.733,7.951a.875.875,0,0,0-1.593,0l-4.211,9.316-9.957,0h0a.875.875,0,0,0-.556,1.551l8.4,6.907L7.9,35.774a.875.875,0,0,0,1.314.979l8.724-5.617,8.723,5.617a.871.871,0,0,0,.474.139.874.874,0,0,0,.841-1.119L25.066,25.738l8.668-6.907A.875.875,0,0,0,34.014,17.857Zm-3.339,1.174-7.159,5.7a.874.874,0,0,0-.3.929l2.421,8.353L18.41,29.36a.875.875,0,0,0-.948,0L10.23,34.017l2.421-8.353a.875.875,0,0,0-.285-.92l-6.921-5.7h8a.875.875,0,0,0,.8-.513l3.691-8.1,3.691,8.1a.979.979,0,0,0,.826.492h8.305Z" transform="translate(-2.095 -7.438)"/>
</svg>
