<svg xmlns="http://www.w3.org/2000/svg" width="29.455" height="29.455" viewBox="0 0 29.455 29.455">
  <g id="noun_Star_3750416" transform="translate(0 0)">
    <path id="Trazado_38" data-name="Trazado 38" d="M109.414,109.756c-.293.3-.583.6-.876.894q-1.918,1.958-3.832,3.92-1.11,1.137-2.219,2.271l.153.933q.45,2.768.9,5.533c.191,1.159.378,2.318.569,3.473a.524.524,0,0,1-.75.6l-1.081-.6q-2.368-1.3-4.735-2.611l-2.717-1.5c-.276.15-.549.3-.825.454q-2.368,1.3-4.735,2.611-1.488.821-2.973,1.642a.525.525,0,0,1-.75-.6c.068-.422.136-.844.208-1.263q.45-2.768.9-5.533c.17-1.048.344-2.1.515-3.144-.228-.236-.46-.469-.689-.7q-1.918-1.958-3.832-3.92-1.2-1.229-2.407-2.461c-.252-.258-.167-.837.225-.9l1.21-.182q2.649-.4,5.294-.808c1.04-.157,2.08-.318,3.119-.476l.44-.933q1.186-2.516,2.369-5.036.741-1.583,1.486-3.162a.454.454,0,0,1,.273-.236l.014,0a.309.309,0,0,1,.055-.014A.4.4,0,0,1,94.8,98h.068a.49.49,0,0,1,.068.007.077.077,0,0,1,.027.007h.007s.007,0,.007,0l.027.007a.454.454,0,0,1,.273.236c.181.383.361.765.542,1.152q1.186,2.516,2.369,5.036.7,1.475,1.387,2.947c.334.05.672.1,1.006.154q2.649.4,5.294.808c1.108.168,2.216.34,3.324.508C109.581,108.919,109.667,109.5,109.414,109.756Z" transform="translate(-80.103 -98)" fill="#feec09"/>
  </g>
</svg>
