<svg xmlns="http://www.w3.org/2000/svg" width="55.457" height="49.41" viewBox="0 0 55.457 49.41">
  <g id="noun-person-1002547" transform="translate(-4.249 0)">
    <path id="Trazado_160" data-name="Trazado 160" d="M149.921,104.038c-4.07-.037-7.956-2.557-7.956-6.568V95.138a23.3,23.3,0,0,0,4.166-7.25c.078-.4.967-.6,1.224-.88a4.492,4.492,0,0,0,.624-5.408c-.142-.252-.9-.472-.889-.784,0-2.131.014-4.267,0-6.393a10.672,10.672,0,0,0-2.594-7.145,10.165,10.165,0,0,0-5.513-2.846,18.332,18.332,0,0,0-7.906.188,9.577,9.577,0,0,0-5.632,3.813,11.049,11.049,0,0,0-1.737,5.752c-.032,2.168,0,4.34-.013,6.512.05.431-.82.729-.99,1.086a4.506,4.506,0,0,0,1.031,5.509,3.161,3.161,0,0,1,1.123,1.215,22.909,22.909,0,0,0,3.969,6.554v2.41c0,4.01-3.786,6.508-7.961,6.568-3.76.058-9.036,2.36-13.2,9.462h55.457c-4.181-7.107-9.533-9.426-13.2-9.463Z" transform="translate(-103.416 -64.091)" fill="#fff"/>
  </g>
</svg>
