<svg id="noun_User_3750420" xmlns="http://www.w3.org/2000/svg" width="36" height="37" viewBox="0 0 36 37">
  <g id="Grupo_47" data-name="Grupo 47">
    <path id="Trazado_39" data-name="Trazado 39" d="M306.544,106.134a9.156,9.156,0,0,0,5.572.64,9.057,9.057,0,0,0,7.07-7.352,9.925,9.925,0,0,0,.124-1.464v-.009a9.012,9.012,0,0,0-1.651-5.192,9.193,9.193,0,0,0-4.322-3.288,9.006,9.006,0,0,0-6.792,16.664Z" transform="translate(-292.309 -88.951)" fill="#fff"/>
    <path id="Trazado_40" data-name="Trazado 40" d="M222.92,601.831v-6.113a8.136,8.136,0,0,0-1.816-5.254,10.964,10.964,0,0,0-6.727-3.741,22.865,22.865,0,0,0-3.654-.167H200c-.914,0-1.827-.019-2.741,0a11.69,11.69,0,0,0-7.447,2.794,8.256,8.256,0,0,0-2.879,6.094c-.006,1.174,0,2.344,0,3.518v2.246c0,.343-.022.7,0,1.04a1.549,1.549,0,0,0,1.705,1.295h32.7a1.279,1.279,0,0,0,.133-.009,1.473,1.473,0,0,0,1.451-1.328C222.925,602.086,222.92,601.956,222.92,601.831Z" transform="translate(-186.922 -566.548)" fill="#fff"/>
  </g>
</svg>
