<svg id="place_black_48dp" xmlns="http://www.w3.org/2000/svg" width="70.803" height="62.636" viewBox="0 0 70.803 62.636">
  <path id="Trazado_6" data-name="Trazado 6" d="M0,0H70.8V62.636H0Z" fill="none"/>
  <path id="Trazado_7" data-name="Trazado 7" d="M22.9,25.068a4.615,4.615,0,1,1,4.726-4.614A4.684,4.684,0,0,1,22.9,25.068Zm14.177-4.152A13.9,13.9,0,0,0,22.9,6.614a13.9,13.9,0,0,0-14.177,14.3c0,5.4,4.607,12.549,14.177,21.085C32.471,33.465,37.079,26.314,37.079,20.916ZM22.9,2A18.573,18.573,0,0,1,41.8,20.916q0,11.488-18.9,27.221Q4.012,32.393,4,20.916A18.573,18.573,0,0,1,22.9,2Z" transform="translate(12.499 6.25)"/>
</svg>
